<svg id="Layer_1" data-name="Layer 1" xmlns="http://www.w3.org/2000/svg" viewBox="0 0 512 512"><defs><style>.cls-1{fill:#727272;}</style></defs><title>calendar-handdrawn</title><path class="cls-1" d="M507.31,173.11a85,85,0,0,0,.71-9.28c.79-23.42,1.52-47.71,1.92-72.5,0-5.42.57-11.1-.94-16.69a33.83,33.83,0,0,0-8.12-14.89,34.92,34.92,0,0,0-14.42-9.24c-5.55-1.9-11.53-1.73-16.94-1.8L431,48.27c0-5.49,0-11,0-16.48q0-3.89.22-7.77c.12-2.38-1.15-4.39-3.54-6.15-.9-.66-2.85-.61-3.36.2a16.54,16.54,0,0,0-1.92,3.9,67.71,67.71,0,0,0-1.7,7.16,82.94,82.94,0,0,0-1.58,10.28c-.17,2.91-.73,5.81-1.11,8.71L402.79,48,365,47.57c0-5.26,0-10.52,0-15.78q0-3.89.22-7.77c.12-2.38-1.15-4.39-3.54-6.15-.9-.66-2.85-.61-3.36.2a16.54,16.54,0,0,0-1.92,3.9,67.74,67.74,0,0,0-1.7,7.16,82.94,82.94,0,0,0-1.58,10.28c-.16,2.68-.65,5.35-1,8q-26.58-.27-53.19-.51c0-5,0-10.09,0-15.14q0-3.89.22-7.77c.12-2.38-1.15-4.39-3.54-6.15-.9-.66-2.85-.61-3.36.2a16.56,16.56,0,0,0-1.92,3.9,67.71,67.71,0,0,0-1.7,7.16A82.94,82.94,0,0,0,287,39.41c-.14,2.47-.57,4.94-.93,7.41q-26.62-.22-53.28-.35c0-4.9,0-9.79,0-14.69q0-3.89.22-7.77c.12-2.38-1.15-4.39-3.54-6.15-.9-.66-2.85-.61-3.36.2a16.57,16.57,0,0,0-1.92,3.9,67.74,67.74,0,0,0-1.7,7.16,82.94,82.94,0,0,0-1.58,10.28c-.14,2.34-.53,4.67-.87,7l-8.21,0-45.13-.31c0-4.76,0-9.52,0-14.28q0-3.89.22-7.77c.12-2.38-1.15-4.39-3.54-6.15-.9-.66-2.85-.61-3.36.2a16.56,16.56,0,0,0-1.92,3.9,67.72,67.72,0,0,0-1.7,7.16,83,83,0,0,0-1.58,10.28c-.13,2.19-.48,4.38-.8,6.56l-53.4-.37c0-4.61,0-9.22,0-13.82q0-3.89.22-7.77c.12-2.38-1.15-4.39-3.54-6.15-.9-.66-2.85-.61-3.36.2A16.57,16.57,0,0,0,92.05,22a67.74,67.74,0,0,0-1.7,7.16,82.94,82.94,0,0,0-1.58,10.28c-.12,2-.43,4.07-.74,6.11L54,45.29l-9.87-.07c-1.7,0-3.16-.06-5.06,0a35,35,0,0,0-5.69.53A38.36,38.36,0,0,0,2.24,75.83a54.67,54.67,0,0,0-.79,10.93l0,9.89q.14,36.84.27,73.84H1.44q0,33.82,0,67.74.18,31.16.37,62.44c.07,7.9-.08,16.78-.24,24.63q-.53,32.83-1.06,66Q.38,407.87.2,424.52L.07,441.19,0,449.53l0,4.21a45.14,45.14,0,0,0,.34,5,40.06,40.06,0,0,0,23,31.31,38.47,38.47,0,0,0,9.71,3,51.75,51.75,0,0,0,9.57.65l16.78,0,67.26,0c89.78,0,179.78-.27,268.2.78l12.49,0c44.43-.3,75.08-2.85,67.57-5.63-14.33-5.29-75.11-9.13-158.74-9.85l-87.53-.24H50.6c-5.28-.08-11.33.24-14.87-.39a25.32,25.32,0,0,1-18.81-14.57A24.08,24.08,0,0,1,15.11,458a34.43,34.43,0,0,1-.42-6.71V183.75h38v0h377.8q8.14.1,16.28.22l9.6,0q5.66,0,10.89-.18h34.07q-.11,81-.22,162c-.06,28.75.23,55.29.83,79.94l.51,18.14.3,8.81a29.48,29.48,0,0,1-.45,7.16,28.2,28.2,0,0,1-16.82,20.63c-6.43,2.55-10,2.59-9.3,3.43.54.38,5.88,1.94,14.64-2.07A32.56,32.56,0,0,0,506.12,466c3.38-7,2.73-15.09,3-22.91q.4-23.63.81-47.85c.56-57.26,1.13-115.2,1.7-173.16.12-16.27.24-32.54.36-48.91ZM14.69,115.44V85.16a27.13,27.13,0,0,1,2.08-11.69,26.21,26.21,0,0,1,6.85-9.23l0,0a25.06,25.06,0,0,1,14.63-5.93c1.18-.09,2.93-.11,4.74-.1H87.4c-3.41,7.17-.5,14.65-2.58,21.89a1.28,1.28,0,0,0,0,.52c.3,1.84,2.85,3.11,5.63,2.8,5.29-.59,9.13-3.11,9.85-6.57a17.64,17.64,0,0,0,.24-3.62q0-7.51,0-15h52.89c-3.41,7.17-.5,14.66-2.58,21.89a1.28,1.28,0,0,0,0,.52c.3,1.84,2.85,3.11,5.63,2.8,5.29-.59,9.13-3.11,9.85-6.57a17.64,17.64,0,0,0,.24-3.62q0-7.51,0-15h52.89c-3.41,7.17-.5,14.65-2.58,21.89a1.28,1.28,0,0,0,0,.52c.3,1.84,2.85,3.11,5.63,2.8,5.29-.59,9.13-3.11,9.85-6.57a17.64,17.64,0,0,0,.24-3.62q0-7.5,0-15h52.88c-3.4,7.16-.49,14.65-2.57,21.88a1.28,1.28,0,0,0,0,.52c.3,1.84,2.85,3.11,5.63,2.8,5.29-.59,9.13-3.11,9.85-6.57a17.65,17.65,0,0,0,.24-3.62q0-7.5,0-15h52.88c-3.4,7.16-.49,14.64-2.57,21.87a1.28,1.28,0,0,0,0,.52c.3,1.84,2.85,3.11,5.63,2.8,5.29-.59,9.13-3.11,9.85-6.57a17.64,17.64,0,0,0,.24-3.62q0-7.49,0-15l52.85,0c-3.35,7.14-.47,14.6-2.54,21.81a1.28,1.28,0,0,0,0,.52c.3,1.84,2.85,3.11,5.63,2.8,5.29-.59,9.13-3.11,9.85-6.57a17.65,17.65,0,0,0,.24-3.62q0-7.46,0-14.92l30.78.06,9,0h4.51c1.53,0,2.4.1,3.62.18a25,25,0,0,1,12.46,5.12,25.46,25.46,0,0,1,7.56,9.56A24.66,24.66,0,0,1,500.75,79a21.75,21.75,0,0,1,.39,2.93c.07.92.15,2,.14,3.35q.34,15.33.66,29.53c.6,18.94,1.52,36.43,2.71,52.73.17,2.35.38,4.22.62,5.6L480.38,173c-22-2.39-54.74-4-94.06-4.45l-67.25-.24H14.69Z"/><path class="cls-1" d="M243.62,373.83c-3.07,3-8.2,5-13.53,5.34s-11.16-.93-17-3.2a84.6,84.6,0,0,1-15.26-7.82,22.53,22.53,0,0,0-14.48-3.29c-1.94.17-3.19,2.25-1.87,3.76a57,57,0,0,0,6.8,6.71,102.3,102.3,0,0,0,14.22,10.11c7.23,4.17,15.38,8,24.68,8.56,7.88.41,16.14-.74,23.64-5.2,7.57-4.29,13.08-13.4,13-22.18a20,20,0,0,1,.47-3c2.36-10.83-2-21.89-9.11-30a62.71,62.71,0,0,0-15.54-12.5,33.49,33.49,0,0,0,5-2.62,34.78,34.78,0,0,0,15.13-20.09,33.81,33.81,0,0,0,1.16-11.7,19.74,19.74,0,0,0-5.72-12.3,26.49,26.49,0,0,0-10.82-6.28,38.41,38.41,0,0,0-11-1.63,9.77,9.77,0,0,1-2.51-.47c-9-2.8-19-1.27-27.68,2.38s-16.59,9.3-24,15.56a7,7,0,0,0-.87,1.06c-3,4-2,8.59,1.32,9.78a20.7,20.7,0,0,0,18.18-2c1.84-1.19,3.65-2.49,5.55-3.63a46.59,46.59,0,0,1,20.13-6.76,41.35,41.35,0,0,1,10.51.27c3.43.56,7,1.46,9,2.66l0,0c1.63,1,2.08,1.57,2.43,2.41a11,11,0,0,1,.37,5.11,23.19,23.19,0,0,1-6,12.58,23.94,23.94,0,0,1-10.42,6.61,22.64,22.64,0,0,0-7,3.8,5.65,5.65,0,0,0-3.18,2.79,2.69,2.69,0,0,0-.14,3.22c1.4,6.34,5.46,11.24,10.55,14.72,1.9,1.26,3.87,2.44,5.72,3.8a30.9,30.9,0,0,1,12,17c1.75,6.69.45,12.63-3.49,16.36Z"/><path class="cls-1" d="M339,285.67c.18-2.37.28-4,.35-7,.13-4.2.31-8.67-1.54-11.67a12.49,12.49,0,0,0-8.95-6.16,39.57,39.57,0,0,0-6.19-.46l-4.14-.17a102.7,102.7,0,0,1-13.2-1.43,5.77,5.77,0,0,0-1.24,0c-4.41.23-7.55,3.32-6.92,6.8,1.21,6.63,7.07,11.61,15.33,12.79,1.42.2,2.86.32,4.31.41l3.57.15c.17,0,.39,0,.32.26l-.1,10.87L320.34,318h-.06l-.38,43.44L319.47,380a23.56,23.56,0,0,0,4.29,14.76,2.33,2.33,0,0,0,4.2-.44,60.23,60.23,0,0,0,2.47-9.33c.93-5.67,1.66-11.4,2.27-17.14.86-8.19,1.87-16.38,2.18-24.61.54-14,3.09-27.92,1.62-42a7.21,7.21,0,0,1,.32-2.44A73.39,73.39,0,0,0,339,285.67Z"/></svg>