<svg id="Layer_1" data-name="Layer 1" xmlns="http://www.w3.org/2000/svg" viewBox="0 0 512 512"><defs><style>.cls-1{fill:#141f38;}</style></defs><title>medal-2-outline</title><path class="cls-1" d="M500.8,229h0a38.23,38.23,0,0,1-8.29-41.67h0a38.23,38.23,0,0,0-20.69-50h0A38.23,38.23,0,0,1,448.22,102h0A38.23,38.23,0,0,0,410,63.78h0a38.23,38.23,0,0,1-35.32-23.6,38.2,38.2,0,0,0-50-20.69h0a38.17,38.17,0,0,1-14.62,2.91,38.23,38.23,0,0,1-27-11.2h0a38.23,38.23,0,0,0-54.07,0h0a38.23,38.23,0,0,1-27,11.2,38.18,38.18,0,0,1-14.62-2.91h0a38.2,38.2,0,0,0-50,20.69A38.23,38.23,0,0,1,102,63.78h0A38.23,38.23,0,0,0,63.78,102h0a38.23,38.23,0,0,1-23.6,35.32h0a38.23,38.23,0,0,0-20.69,50h0A38.23,38.23,0,0,1,11.2,229h0a38.23,38.23,0,0,0,0,54.07,38.23,38.23,0,0,1,8.29,41.67h0a38.23,38.23,0,0,0,20.69,50A38.23,38.23,0,0,1,63.78,410h0A38.23,38.23,0,0,0,102,448.22h0a38.23,38.23,0,0,1,35.32,23.6,38.2,38.2,0,0,0,50,20.69h0A38.23,38.23,0,0,1,229,500.8h0a38.23,38.23,0,0,0,54.07,0h0a38.23,38.23,0,0,1,41.67-8.29h0a38.2,38.2,0,0,0,50-20.69A38.23,38.23,0,0,1,410,448.22h0A38.23,38.23,0,0,0,448.22,410h0a38.23,38.23,0,0,1,23.6-35.32,38.23,38.23,0,0,0,20.69-50h0A38.23,38.23,0,0,1,500.8,283,38.23,38.23,0,0,0,500.8,229Zm-18.1,36a63.64,63.64,0,0,0-13.84,69.57A12.65,12.65,0,0,1,462,351a63.64,63.64,0,0,0-39.41,59A12.65,12.65,0,0,1,410,422.62,63.65,63.65,0,0,0,351,462a12.6,12.6,0,0,1-16.51,6.84,63.83,63.83,0,0,0-69.57,13.84,12.64,12.64,0,0,1-17.87,0,63.83,63.83,0,0,0-69.57-13.84A12.6,12.6,0,0,1,161,462a63.65,63.65,0,0,0-59-39.41A12.65,12.65,0,0,1,89.38,410,63.64,63.64,0,0,0,50,351a12.64,12.64,0,0,1-6.84-16.51A63.64,63.64,0,0,0,29.3,264.93a12.63,12.63,0,0,1,0-17.87A63.64,63.64,0,0,0,43.14,177.5,12.65,12.65,0,0,1,50,161a63.64,63.64,0,0,0,39.41-59A12.65,12.65,0,0,1,102,89.38,63.65,63.65,0,0,0,161,50a12.6,12.6,0,0,1,16.51-6.84A63.5,63.5,0,0,0,201.92,48a63.43,63.43,0,0,0,45.15-18.7,12.64,12.64,0,0,1,17.87,0A63.42,63.42,0,0,0,310.08,48a63.51,63.51,0,0,0,24.42-4.86A12.6,12.6,0,0,1,351,50a63.65,63.65,0,0,0,59,39.41A12.65,12.65,0,0,1,422.62,102,63.65,63.65,0,0,0,462,161a12.65,12.65,0,0,1,6.84,16.51,63.64,63.64,0,0,0,13.84,69.57,12.63,12.63,0,0,1,0,17.87ZM256,64C150,64,64,150,64,256s86,192,192,192,192-86,192-192S362,64,256,64Zm0,358.4c-91.75,0-166.4-74.65-166.4-166.4S164.25,89.6,256,89.6,422.4,164.25,422.4,256,347.75,422.4,256,422.4Zm64.48-210.21-24.31-3.67a3.9,3.9,0,0,1-2.86-2.28l-10.87-22.91a29.12,29.12,0,0,0-52.89,0l-10.87,22.91a3.9,3.9,0,0,1-2.85,2.28l-24.31,3.67a29.45,29.45,0,0,0-23.53,20,30.33,30.33,0,0,0,7.13,31l17.6,17.84a4.91,4.91,0,0,1,1.25,4.19l-4.16,25.19a30.12,30.12,0,0,0,12.24,29.71,28.74,28.74,0,0,0,30.61,1.8l21.74-11.89a3.25,3.25,0,0,1,3.17,0L279.34,342a28.72,28.72,0,0,0,30.61-1.8,30.13,30.13,0,0,0,12.24-29.72L318,285.31a4.92,4.92,0,0,1,1.26-4.2l17.59-17.84a30.33,30.33,0,0,0,7.13-31A29.45,29.45,0,0,0,320.48,212.19Zm-1.83,33.11-17.59,17.83a30.52,30.52,0,0,0-8.3,26.36l4.16,25.17a4.56,4.56,0,0,1-1.79,4.67,3.06,3.06,0,0,1-3.51.22l-21.76-11.89a28.81,28.81,0,0,0-27.73,0l-21.74,11.89a3.08,3.08,0,0,1-3.52-.22,4.55,4.55,0,0,1-1.79-4.66l4.16-25.18a30.52,30.52,0,0,0-8.29-26.35L193.34,245.3a4.79,4.79,0,0,1-1.06-5,3.82,3.82,0,0,1,3.06-2.81l24.32-3.67a29.45,29.45,0,0,0,22.14-16.61l10.88-22.91a3.54,3.54,0,0,1,6.64,0l10.88,22.91a29.45,29.45,0,0,0,22.15,16.61l24.31,3.67a3.82,3.82,0,0,1,3.06,2.81A4.79,4.79,0,0,1,318.66,245.3Z"/></svg>