<svg id="Layer_1" data-name="Layer 1" xmlns="http://www.w3.org/2000/svg" viewBox="0 0 512 512"><title>heart</title><path d="M272.8,91.25c0,.07,2.69,8-5.5-.37l-7.67-5.12q-3.66-.51-7.44-.86l-4.33-5.74c.21.2.68-3.67,13.14-20.48,12.62-14.78,39.46-49,103.47-57.48,0,.27,12.68-2.86,34.35,0,21.08,2.93,53.45,13.35,79.27,46.32-1.41-.15,28.45,28.29,33.38,91.12,1.92,29.71-1.54,63.32-10.49,97.27-8.77,33.59-23,69.49-45.23,98.56-44.74,58-103.68,85.7-143.19,114.9-39.72,27.89-65.29,57.11-72.18,62.63,0,.07,12.94-14.44,34.25-33.71,21-20.06,51.69-39.72,84.89-61.23,32.87-21.14,66.68-46.44,89.13-74.14,22.77-27.49,33.16-53.84,35.07-58.94-.21-.45-8,20.89-26.82,46.57-18.74,25.85-49.15,52.23-81,73.1-31.71,21.21-64.25,40.26-87.35,58.62-23.45,18.83-39.55,35-44,38.32,0,.07,12.34-13.23,32.51-31.05,19.62-18.14,49.32-37.2,80.07-57.36s62.15-43.51,83.32-69.07c21.53-25.06,32.18-49.84,34-56.89a224.4,224.4,0,0,1-23.86,39.67c-16.48,22-42.72,45.88-71.46,65-28.66,19.44-58.81,36.79-82.21,53.29S257,476.31,250.56,480.9c-.19-.37,37.82-34.13,48.87-41.49-6.4,4.26-12.89,8.48-19.05,13.35,9.62-8.38,19.79-15.65,30-22.92q9.05-5.73,18.22-11.23c-.19-.49-49.34,30.5-52.92,33.24,0,0-4.85,5,.39.93s20.74-17.47,64.35-46.91c-.06-.12,10.73-17,34.69-33.53,23.06-16.92,52.28-34,78.67-88.34,12.61-27.06,27.73-58.25,31.79-95.31,4.1-36.62-3.73-78.57-26.74-110.95C415.33,10.36,319.51,14.64,272.8,91.25Z" fill="#231f20"/><path d="M250.76,63.92c0-.08,8-.77-.62,7.29l-5.7,8.23c-.82,2.93-1.7,5.79-2.6,8.6l-5.73,3.48c-.17.19-3.16,5.15-15-7.83-11.79-11.23-32.58-39.33-86.91-42.31a126.58,126.58,0,0,0-28.07,4C89.16,49.66,68.92,55.2,50.7,78.73c1.13-.32-19,18.26-22.79,63.4C24.5,187.44,30.12,259.41,65.59,308.4c36.46,49.79,93,79.54,134,111.2A405.5,405.5,0,0,1,273,490.88S259.95,475.18,238.2,454c-21.31-22-54.73-45.29-86.32-67.24-32-22.1-62.12-46.54-80.82-70.56-18.93-23.73-27.25-45.26-29.76-49.47.31-.1,6.15,17.79,21.51,40.29,15.19,22.6,41.47,47.75,71.63,69.66,30,22.2,62.29,43.41,86.3,65.17,23.45,21.51,38.74,39.87,42.25,44.89,0,.05-12.24-14.19-32.6-33.41-20.34-20.06-50.63-40.8-80.7-61.55s-59.48-43.39-78.79-66.3c-19.68-22.54-29.77-43.59-33.42-49a210,210,0,0,0,20.56,37.35c14.42,21,38.32,45.16,65.78,65.79,27.27,20.87,56.77,40.56,79.3,59.41s37.69,36.66,42.78,43.31c.29-.32-35.67-37.5-47.4-43.86,6,5.2,11.93,10.28,17.56,16-9.46-8.41-19.57-15.82-29.63-23.19q-8.53-6.77-17.2-13.35c.25-.45,46.35,36.89,47.63,42.25,0,0,5.33,4,.6-.74s-19.39-18.28-63.35-47c.06-.12-12.75-9.06-36.24-26.95-22.6-18.33-59.49-44.75-86.46-99.27C18.51,259,8,226.08,2.68,188.58-2.63,151.93-1.74,106.23,21.11,69,65.36-6.74,178.07-21.28,250.76,63.92Z" fill="#231f20"/></svg>