<svg id="Layer_1" data-name="Layer 1" xmlns="http://www.w3.org/2000/svg" viewBox="0 0 512 512"><title>whatsapp-flat</title><path d="M0,256C0,114.62,114.62,0,256,0S512,114.63,512,256,397.37,512,256,512,0,397.38,0,256Z" fill="#009d00"/><path d="M158.62,353.9c1.1-4.24,2.05-7.92,3-11.58,3.22-11.77,6.52-23.49,9.58-35.3a8.63,8.63,0,0,0-.58-5.65c-29.88-56.95.94-125.86,63.64-140.6,56.93-13.36,108.11,25.08,117.46,76.47,9.72,53.62-25.34,104.52-78.52,113.83-21.14,3.66-41.35.56-60.64-8.85a9.86,9.86,0,0,0-6-.63C180.92,348,163.81,352.88,158.62,353.9Zm22.62-22.29c9.67-2.54,18.59-4.77,27.42-7.25a8,8,0,0,1,6.63.94C232,335,249.91,338.55,269,335.5c44.08-7.08,74.27-48.32,67.53-92.24a81,81,0,0,0-94.78-67.78c-54.55,10-83.52,70.82-56.39,119,3,5.34,3.83,9.73,1.81,15.4C184.82,316.72,183.33,323.84,181.24,331.61Z" fill="#fff" fill-rule="evenodd"/><path d="M281.62,301.8c-19-.68-49.16-15.65-69.85-51.59-7.34-12.76-6.28-27.33,4.48-37.32,3.64-3.4,8.2-2.56,12.47-1.85,1,.17,2.15,1.77,2.68,3,2.75,6.25,5.47,12.56,7.87,19,1.27,3.41-1.06,6.57-6,12.22-1.56,1.8-1.88,3.47-.66,5.53a66.2,66.2,0,0,0,33.69,28.93,4.07,4.07,0,0,0,5.13-1.38c7.75-9.47,8.54-12.22,12.62-10.29,19.62,9.41,21.14,9.78,21.23,12C306,296.53,290.8,302.47,281.62,301.8Z" fill="#fff" fill-rule="evenodd"/></svg>